<?xml version="1.0" encoding="utf-8"?>
<!-- Generator: Adobe Illustrator 16.0.0, SVG Export Plug-In . SVG Version: 6.00 Build 0)  -->
<!DOCTYPE svg PUBLIC "-//W3C//DTD SVG 1.1//EN" "http://www.w3.org/Graphics/SVG/1.1/DTD/svg11.dtd">
<svg version="1.1" id="Layer_1" xmlns="http://www.w3.org/2000/svg" xmlns:xlink="http://www.w3.org/1999/xlink" x="0px" y="0px"
	 width="100px" height="100px" viewBox="0 0 100 100" enable-background="new 0 0 100 100" xml:space="preserve">
<image overflow="visible" width="144" height="144" xlink:href="logo-white_02.png"  transform="matrix(0.6944 0 0 0.6944 180 -50)">
</image>
<g>
	<circle fill="#5B5B5B" cx="51" cy="51" r="49"/>
	<circle fill="#FFFFFF" cx="49" cy="49" r="49"/>
	<linearGradient id="SVGID_1_" gradientUnits="userSpaceOnUse" x1="49.0005" y1="3.0005" x2="49.0005" y2="96.1019">
		<stop  offset="0.4995" style="stop-color:#FF9700"/>
		<stop  offset="1" style="stop-color:#F8FF2A"/>
	</linearGradient>
	<path fill="url(#SVGID_1_)" d="M95.551,49C95.551,23.292,74.709,2.45,49,2.45C23.292,2.45,2.45,23.292,2.45,49
		c0,16.452,8.542,30.899,21.426,39.179c3.557-9.501,12.716-16.267,23.458-16.267c11.359,0,20.945,7.565,24.012,17.93
		C85.77,81.934,95.551,66.61,95.551,49z"/>
	<g>
		<g opacity="0.25">
			<path fill="none" d="M79.404,39.111c5.463,17.344-4.171,35.833-21.515,41.295c-17.343,5.461-35.833-4.171-41.294-21.517
				c-5.462-17.342,4.171-35.832,21.514-41.293C55.455,12.134,73.943,21.767,79.404,39.111z"/>
			<text transform="matrix(-0.5752 -0.818 0.8671 -0.6097 23.5962 71.4922)" font-family="'ChaparralPro-Regular'" font-size="10">M</text>
			<text transform="matrix(-0.4024 -0.9155 0.9704 -0.4265 18.9224 64.5879)" font-family="'ChaparralPro-Regular'" font-size="10">o</text>
			<text transform="matrix(-0.2601 -0.9656 1.0235 -0.2757 16.9609 60.2227)" font-family="'ChaparralPro-Regular'" font-size="10">n</text>
			<text transform="matrix(-0.1187 -0.9929 1.0525 -0.1258 15.5952 55.0664)" font-family="'ChaparralPro-Regular'" font-size="10">e</text>
			<text transform="matrix(0.012 -0.9999 1.0599 0.0127 15.0742 50.8984)" font-family="'ChaparralPro-Regular'" font-size="10">y</text>
			<text transform="matrix(0.1314 -0.9913 1.0508 0.1393 15.1479 46.4585)" font-family="'ChaparralPro-Regular'" font-size="10">t</text>
			<text transform="matrix(0.2532 -0.9674 1.0255 0.2684 15.5298 43.1235)" font-family="'ChaparralPro-Regular'" font-size="10">o</text>
			<text transform="matrix(0.392 -0.92 0.9752 0.4155 16.7158 38.4927)" font-family="'ChaparralPro-Regular'" font-size="10">d</text>
			<text transform="matrix(0.5166 -0.8562 0.9076 0.5476 18.6768 33.9106)" font-family="'ChaparralPro-Regular'" font-size="10">a</text>
			<text transform="matrix(0.6245 -0.781 0.8278 0.662 20.8926 30.2026)" font-family="'ChaparralPro-Regular'" font-size="10">y</text>
			<text transform="matrix(0.698 -0.7161 0.7591 0.7399 23.7041 26.7681)" font-family="'ChaparralPro-Regular'" font-size="10"> </text>
			<text transform="matrix(0.7805 -0.6252 0.6627 0.8273 24.9883 25.2495)" font-family="'ChaparralPro-Regular'" font-size="10">K</text>
			<text transform="matrix(0.8723 -0.4889 0.5183 0.9247 29.7002 21.5112)" font-family="'ChaparralPro-Regular'" font-size="10">o</text>
			<text transform="matrix(0.9271 -0.3748 0.3973 0.9827 33.9199 19.1772)" font-family="'ChaparralPro-Regular'" font-size="10">r</text>
			<text transform="matrix(0.9645 -0.264 0.2798 1.0224 37.2178 17.811)" font-family="'ChaparralPro-Regular'" font-size="10">e</text>
			<text transform="matrix(0.9904 -0.1382 0.1465 1.0498 41.2764 16.6821)" font-family="'ChaparralPro-Regular'" font-size="10">a</text>
			<text transform="matrix(0.9992 -0.0408 0.0433 1.0591 45.6094 16.1245)" font-family="'ChaparralPro-Regular'" font-size="10"> </text>
			<text transform="matrix(0.9972 0.0742 -0.0787 1.0571 47.6074 15.9302)" font-family="'ChaparralPro-Regular'" font-size="10">B</text>
			<text transform="matrix(0.9777 0.2099 -0.2225 1.0364 53.082 16.3901)" font-family="'ChaparralPro-Regular'" font-size="10">r</text>
			<text transform="matrix(0.9457 0.325 -0.3445 1.0024 56.5635 17.1011)" font-family="'ChaparralPro-Regular'" font-size="10">a</text>
			<text transform="matrix(0.8889 0.4581 -0.4856 0.9422 60.6348 18.4409)" font-family="'ChaparralPro-Regular'" font-size="10">n</text>
			<text transform="matrix(0.8083 0.5888 -0.6242 0.8567 65.3359 20.855)" font-family="'ChaparralPro-Regular'" font-size="10">d</text>
			<text transform="matrix(0.7409 0.6716 -0.7119 0.7854 69.3555 23.8696)" font-family="'ChaparralPro-Regular'" font-size="10"> </text>
			<text transform="matrix(0.6621 0.7494 -0.7944 0.7018 70.916 25.147)" font-family="'ChaparralPro-Regular'" font-size="10">P</text>
			<text transform="matrix(0.5404 0.8414 -0.8919 0.5728 74.3691 29.0503)" font-family="'ChaparralPro-Regular'" font-size="10">o</text>
			<text transform="matrix(0.3894 0.9211 -0.9763 0.4128 77.0225 32.9985)" font-family="'ChaparralPro-Regular'" font-size="10">w</text>
			<text transform="matrix(0.2379 0.9713 -1.0296 0.2522 79.4922 39.0249)" font-family="'ChaparralPro-Regular'" font-size="10">e</text>
			<text transform="matrix(0.1218 0.9926 -1.0521 0.1291 80.4961 43.1558)" font-family="'ChaparralPro-Regular'" font-size="10">r</text>
			<text transform="matrix(0.0361 0.9993 -1.0593 0.0383 80.9063 46.7173)" font-family="'ChaparralPro-Regular'" font-size="10"> </text>
			<text transform="matrix(-0.0842 0.9964 -1.0562 -0.0893 81.1064 48.731)" font-family="'ChaparralPro-Regular'" font-size="10">A</text>
			<text transform="matrix(-0.2663 0.9639 -1.0217 -0.2822 80.6875 54.4492)" font-family="'ChaparralPro-Regular'" font-size="10">w</text>
			<text transform="matrix(-0.4193 0.9079 -0.9623 -0.4444 78.8809 60.7207)" font-family="'ChaparralPro-Regular'" font-size="10">a</text>
			<text transform="matrix(-0.5236 0.8519 -0.9031 -0.5551 77.0586 64.6445)" font-family="'ChaparralPro-Regular'" font-size="10">r</text>
			<text transform="matrix(-0.6287 0.7777 -0.8243 -0.6664 75.2598 67.6855)" font-family="'ChaparralPro-Regular'" font-size="10">d</text>
			<text transform="matrix(-0.7258 0.688 -0.7292 -0.7693 72.127 71.5254)" font-family="'ChaparralPro-Regular'" font-size="10">s</text>
			<text transform="matrix(-0.7848 0.6198 -0.657 -0.8318 69.3018 74.1582)" font-family="'ChaparralPro-Regular'" font-size="10"> </text>
		</g>
		<g>
			<path fill="none" d="M80.404,39.111c5.463,17.344-4.171,35.833-21.515,41.295c-17.343,5.461-35.833-4.171-41.294-21.517
				c-5.462-17.342,4.171-35.832,21.514-41.293C56.455,12.134,74.943,21.767,80.404,39.111z"/>
			
				<text transform="matrix(-0.5752 -0.818 0.8671 -0.6097 24.5962 71.4922)" fill="#FFFFFF" font-family="'ChaparralPro-Regular'" font-size="10">M</text>
			
				<text transform="matrix(-0.4024 -0.9155 0.9704 -0.4265 19.9224 64.5879)" fill="#FFFFFF" font-family="'ChaparralPro-Regular'" font-size="10">o</text>
			
				<text transform="matrix(-0.2601 -0.9656 1.0235 -0.2757 17.9609 60.2227)" fill="#FFFFFF" font-family="'ChaparralPro-Regular'" font-size="10">n</text>
			
				<text transform="matrix(-0.1187 -0.9929 1.0525 -0.1258 16.5952 55.0664)" fill="#FFFFFF" font-family="'ChaparralPro-Regular'" font-size="10">e</text>
			
				<text transform="matrix(0.012 -0.9999 1.0599 0.0127 16.0742 50.8984)" fill="#FFFFFF" font-family="'ChaparralPro-Regular'" font-size="10">y</text>
			
				<text transform="matrix(0.1314 -0.9913 1.0508 0.1393 16.1479 46.4585)" fill="#FFFFFF" font-family="'ChaparralPro-Regular'" font-size="10">t</text>
			
				<text transform="matrix(0.2532 -0.9674 1.0255 0.2684 16.5298 43.1235)" fill="#FFFFFF" font-family="'ChaparralPro-Regular'" font-size="10">o</text>
			
				<text transform="matrix(0.392 -0.92 0.9752 0.4155 17.7158 38.4927)" fill="#FFFFFF" font-family="'ChaparralPro-Regular'" font-size="10">d</text>
			
				<text transform="matrix(0.5166 -0.8562 0.9076 0.5476 19.6768 33.9106)" fill="#FFFFFF" font-family="'ChaparralPro-Regular'" font-size="10">a</text>
			
				<text transform="matrix(0.6245 -0.781 0.8278 0.662 21.8926 30.2026)" fill="#FFFFFF" font-family="'ChaparralPro-Regular'" font-size="10">y</text>
			
				<text transform="matrix(0.698 -0.7161 0.7591 0.7399 24.7041 26.7681)" fill="#FFFFFF" font-family="'ChaparralPro-Regular'" font-size="10"> </text>
			
				<text transform="matrix(0.7805 -0.6252 0.6627 0.8273 25.9883 25.2495)" fill="#FFFFFF" font-family="'ChaparralPro-Regular'" font-size="10">K</text>
			
				<text transform="matrix(0.8723 -0.4889 0.5183 0.9247 30.7002 21.5112)" fill="#FFFFFF" font-family="'ChaparralPro-Regular'" font-size="10">o</text>
			
				<text transform="matrix(0.9271 -0.3748 0.3973 0.9827 34.9199 19.1772)" fill="#FFFFFF" font-family="'ChaparralPro-Regular'" font-size="10">r</text>
			
				<text transform="matrix(0.9645 -0.264 0.2798 1.0224 38.2178 17.811)" fill="#FFFFFF" font-family="'ChaparralPro-Regular'" font-size="10">e</text>
			
				<text transform="matrix(0.9904 -0.1382 0.1465 1.0498 42.2764 16.6821)" fill="#FFFFFF" font-family="'ChaparralPro-Regular'" font-size="10">a</text>
			
				<text transform="matrix(0.9992 -0.0408 0.0433 1.0591 46.6094 16.1245)" fill="#FFFFFF" font-family="'ChaparralPro-Regular'" font-size="10"> </text>
			
				<text transform="matrix(0.9972 0.0742 -0.0787 1.0571 48.6074 15.9302)" fill="#FFFFFF" font-family="'ChaparralPro-Regular'" font-size="10">B</text>
			
				<text transform="matrix(0.9777 0.2099 -0.2225 1.0364 54.082 16.3901)" fill="#FFFFFF" font-family="'ChaparralPro-Regular'" font-size="10">r</text>
			
				<text transform="matrix(0.9457 0.325 -0.3445 1.0024 57.5635 17.1011)" fill="#FFFFFF" font-family="'ChaparralPro-Regular'" font-size="10">a</text>
			
				<text transform="matrix(0.8889 0.4581 -0.4856 0.9422 61.6348 18.4409)" fill="#FFFFFF" font-family="'ChaparralPro-Regular'" font-size="10">n</text>
			
				<text transform="matrix(0.8083 0.5888 -0.6242 0.8567 66.3359 20.855)" fill="#FFFFFF" font-family="'ChaparralPro-Regular'" font-size="10">d</text>
			
				<text transform="matrix(0.7409 0.6716 -0.7119 0.7854 70.3555 23.8696)" fill="#FFFFFF" font-family="'ChaparralPro-Regular'" font-size="10"> </text>
			
				<text transform="matrix(0.6621 0.7494 -0.7944 0.7018 71.916 25.147)" fill="#FFFFFF" font-family="'ChaparralPro-Regular'" font-size="10">P</text>
			
				<text transform="matrix(0.5404 0.8414 -0.8919 0.5728 75.3691 29.0503)" fill="#FFFFFF" font-family="'ChaparralPro-Regular'" font-size="10">o</text>
			
				<text transform="matrix(0.3894 0.9211 -0.9763 0.4128 78.0225 32.9985)" fill="#FFFFFF" font-family="'ChaparralPro-Regular'" font-size="10">w</text>
			
				<text transform="matrix(0.2379 0.9713 -1.0296 0.2522 80.4922 39.0249)" fill="#FFFFFF" font-family="'ChaparralPro-Regular'" font-size="10">e</text>
			
				<text transform="matrix(0.1218 0.9926 -1.0521 0.1291 81.4961 43.1558)" fill="#FFFFFF" font-family="'ChaparralPro-Regular'" font-size="10">r</text>
			
				<text transform="matrix(0.0361 0.9993 -1.0593 0.0383 81.9063 46.7173)" fill="#FFFFFF" font-family="'ChaparralPro-Regular'" font-size="10"> </text>
			
				<text transform="matrix(-0.0842 0.9964 -1.0562 -0.0893 82.1064 48.731)" fill="#FFFFFF" font-family="'ChaparralPro-Regular'" font-size="10">A</text>
			
				<text transform="matrix(-0.2663 0.9639 -1.0217 -0.2822 81.6875 54.4492)" fill="#FFFFFF" font-family="'ChaparralPro-Regular'" font-size="10">w</text>
			
				<text transform="matrix(-0.4193 0.9079 -0.9623 -0.4444 79.8809 60.7207)" fill="#FFFFFF" font-family="'ChaparralPro-Regular'" font-size="10">a</text>
			
				<text transform="matrix(-0.5236 0.8519 -0.9031 -0.5551 78.0586 64.6445)" fill="#FFFFFF" font-family="'ChaparralPro-Regular'" font-size="10">r</text>
			
				<text transform="matrix(-0.6287 0.7777 -0.8243 -0.6664 76.2598 67.6855)" fill="#FFFFFF" font-family="'ChaparralPro-Regular'" font-size="10">d</text>
			
				<text transform="matrix(-0.7258 0.688 -0.7292 -0.7693 73.127 71.5254)" fill="#FFFFFF" font-family="'ChaparralPro-Regular'" font-size="10">s</text>
			
				<text transform="matrix(-0.7848 0.6198 -0.657 -0.8318 70.3018 74.1582)" fill="#FFFFFF" font-family="'ChaparralPro-Regular'" font-size="10"> </text>
		</g>
	</g>
	<radialGradient id="SVGID_2_" cx="52" cy="40.25" r="28.8583" gradientUnits="userSpaceOnUse">
		<stop  offset="0.0746" style="stop-color:#FA7FFF"/>
		<stop  offset="1" style="stop-color:#510094"/>
	</radialGradient>
	<circle fill="url(#SVGID_2_)" cx="49" cy="49" r="30.257"/>
	<g>
		<image overflow="visible" opacity="0.27" width="55" height="31" xlink:href="DF1A4D4C.png"  transform="matrix(1 0 0 1 22 66)">
		</image>
		<g>
			<path fill="#FFFFFF" d="M47.334,71.912c-10.742,0-19.901,6.766-23.458,16.267c7.248,4.659,15.867,7.372,25.124,7.372
				c8.099,0,15.712-2.071,22.346-5.709C68.279,79.478,58.693,71.912,47.334,71.912z"/>
		</g>
	</g>
	<g>
		<path fill="#FFFFFF" d="M23.943,58.17V37.399h4.21v8.42h0.076l7.228-8.42h5.275l-8.141,9.13l8.192,11.641h-5.022l-5.808-8.673
			l-1.801,2.029v6.645H23.943z"/>
		<path fill="#FFFFFF" d="M42.583,58.17V37.399h8.293c2.266,0,4.023,0.596,5.275,1.788c1.251,1.192,1.876,2.769,1.876,4.73
			c0,2.012-0.646,3.605-1.939,4.78c-1.294,1.175-2.997,1.763-5.11,1.763h-4.185v7.709H42.583z M46.793,46.834h3.601
			c1.031,0,1.835-0.254,2.41-0.761c0.574-0.507,0.862-1.226,0.862-2.155c0-1.928-1.083-2.892-3.247-2.892h-3.626V46.834z"/>
		<path fill="#FFFFFF" d="M56.913,58.17l7.33-20.771h4.488l7.33,20.771h-4.438l-1.471-4.641h-7.33l-1.471,4.641H56.913z
			 M63.862,50.131h5.225l-1.319-4.388c-0.523-1.758-0.93-3.17-1.217-4.235h-0.152c-0.39,1.471-0.786,2.883-1.192,4.235
			L63.862,50.131z"/>
	</g>
	<g>
		<path fill="#ADADAD" d="M34.631,90.334c-0.16,0-0.24-0.084-0.24-0.254v-2.8l-1.04,0.009l-0.024,1.586
			c-0.008,0.314-0.184,0.51-0.479,0.51l-2.599,0.033c-0.296,0-0.48-0.195-0.48-0.509l-0.104-4.386
			c-0.008-0.314,0.184-0.51,0.479-0.51l2.774-0.017c0.296,0,0.48,0.194,0.472,0.509l-0.024,1.459l1.023,0.009v-1.9
			c0-0.169,0.072-0.255,0.232-0.255h0.976c0.16,0,0.24,0.086,0.232,0.255l-0.176,6.007c0,0.17-0.08,0.254-0.24,0.254H34.631z
			 M32.057,85.338l-1.056,0.017l0.04,2.724l1.016-0.009V85.338z"/>
		<path fill="#ADADAD" d="M40.983,88.756c0.032,0.179-0.032,0.264-0.168,0.297c-0.967,0.229-2.119,0.399-3.254,0.383
			c-0.36-0.009-0.552-0.204-0.56-0.586l-0.12-4.479c-0.008-0.169,0.072-0.255,0.232-0.255h0.959c0.16,0,0.224,0.086,0.231,0.255
			l0.096,3.683c0.711,0.017,1.479-0.061,2.199-0.17c0.168-0.025,0.24,0.017,0.264,0.17L40.983,88.756z M41.631,90.334
			c-0.16,0-0.24-0.084-0.24-0.254v-6.007c0-0.169,0.072-0.255,0.232-0.255h0.976c0.16,0,0.24,0.086,0.232,0.255l-0.176,6.007
			c0,0.17-0.08,0.254-0.24,0.254H41.631z"/>
		<path fill="#ADADAD" d="M47.28,89.291l-0.016,1.23c-0.008,0.17-0.08,0.254-0.24,0.254h-0.943c-0.16,0-0.24-0.084-0.24-0.254
			l-0.024-1.205l-2.007,0.043c-0.144,0.008-0.24-0.103-0.24-0.256v-0.652c0-0.152,0.096-0.255,0.24-0.255l5.485-0.017
			c0.144,0,0.24,0.102,0.24,0.254v0.561c0,0.152-0.096,0.246-0.24,0.254L47.28,89.291z M44.657,87.807
			c-0.36,0-0.56-0.204-0.56-0.586l-0.04-2.969c-0.008-0.399,0.232-0.594,0.56-0.594l4.07,0.008c0.168,0,0.28,0.119,0.28,0.297v0.561
			c0,0.178-0.112,0.297-0.28,0.297h-3.238v0.364l3.159-0.017c0.144,0,0.224,0.119,0.224,0.254v0.552
			c0,0.169-0.104,0.255-0.264,0.255l-3.119,0.017v0.407l3.302,0.008c0.168-0.016,0.24,0.018,0.264,0.17v0.535
			c0.024,0.161-0.032,0.271-0.168,0.297L44.657,87.807z"/>
		<path fill="#ADADAD" d="M53.376,88.807c0.024,0.179-0.04,0.238-0.185,0.289c-0.592,0.195-1.631,0.314-2.462,0.297
			c-0.36-0.008-0.552-0.203-0.56-0.586l-0.112-4.114c-0.008-0.398,0.231-0.594,0.56-0.594l2.23-0.017c0.168,0,0.28,0.119,0.28,0.297
			v0.695c0,0.178-0.112,0.297-0.28,0.297l-1.438,0.043v2.596c0.464,0.025,1.127-0.008,1.631-0.094
			c0.168-0.025,0.231,0.025,0.248,0.179L53.376,88.807z M54.008,90.334c-0.16,0-0.24-0.084-0.24-0.254l-0.04-2.774h-1.079
			c-0.168,0-0.28-0.118-0.28-0.297v-0.729c0-0.178,0.112-0.297,0.28-0.297h1.063l-0.024-1.824c0-0.17,0.072-0.254,0.232-0.254h0.895
			c0.16,0,0.24,0.084,0.232,0.254l-0.096,5.922c0,0.17-0.08,0.254-0.24,0.254H54.008z M55.599,90.334
			c-0.16,0-0.239-0.084-0.239-0.254v-6.007c0-0.169,0.071-0.255,0.231-0.255h0.896c0.16,0,0.24,0.086,0.231,0.255l-0.176,6.007
			c0,0.17-0.08,0.254-0.239,0.254H55.599z"/>
		<path fill="#ADADAD" d="M57.186,86.398c0-1.435,0.976-2.436,2.238-2.436c1.256,0,2.223,1.001,2.223,2.436
			c0,1.434-0.967,2.383-2.223,2.383C58.161,88.781,57.186,87.832,57.186,86.398z M60.464,86.398c0-0.688-0.376-1.111-0.919-1.111
			c-0.576,0-0.928,0.424-0.928,1.111c0,0.687,0.375,1.102,0.928,1.102C60.088,87.5,60.464,87.085,60.464,86.398z M62.359,90.334
			c-0.16,0-0.24-0.084-0.24-0.254v-6.007c0-0.169,0.072-0.255,0.231-0.255h0.976c0.16,0,0.24,0.086,0.232,0.255l-0.176,6.007
			c0,0.17-0.08,0.254-0.24,0.254H62.359z"/>
	</g>
</g>
<g>
	<g>
		<g>
			
				<line fill="none" stroke="#00381E" stroke-width="2" stroke-linecap="round" stroke-linejoin="round" stroke-miterlimit="10" x1="189.429" y1="87.172" x2="250.929" y2="87.172"/>
		</g>
		<g>
			
				<line fill="none" stroke="#00381E" stroke-width="2" stroke-linecap="round" stroke-linejoin="round" stroke-miterlimit="10" x1="189.429" y1="92.797" x2="250.929" y2="92.797"/>
		</g>
		
			<line fill="none" stroke="#00381E" stroke-width="2" stroke-linecap="round" stroke-linejoin="round" stroke-miterlimit="10" x1="250.929" y1="87.172" x2="250.929" y2="92.797"/>
	</g>
	<g>
		<path fill="#00381E" d="M258.179,81.984v16h-76v-16H258.179 M260.179,79.984h-80v20h80V79.984L260.179,79.984z"/>
	</g>
	<g>
		<path fill="#00381E" d="M268.179,100.984v3.188h-96v-3.188H268.179 M270.179,98.984h-100v7.188h100V98.984L270.179,98.984z"/>
	</g>
	<path fill="none" d="M253.359,115.014c-1.294,2.462-3.779,4.131-6.637,4.131c-2.856,0-5.343-1.669-6.636-4.131
		c-1.293,2.462-3.779,4.131-6.636,4.131c-2.857,0-5.343-1.669-6.637-4.131c-1.293,2.462-3.778,4.131-6.636,4.131
		c-2.856,0-5.343-1.668-6.636-4.131c-1.293,2.463-3.779,4.131-6.637,4.131s-5.342-1.669-6.636-4.131
		c-1.293,2.463-3.778,4.131-6.636,4.131s-5.344-1.669-6.637-4.131c-0.856,1.631-2.243,2.9-3.908,3.58l-0.596,59.391h75.089
		l0.596-59.086C256.108,118.359,254.368,116.935,253.359,115.014z"/>
	<path fill="#00381E" d="M265.051,104.984v6.16c0,2.874-2.171,5.209-4.872,5.313c-0.063,0.003-0.121,0.02-0.184,0.02
		c-0.642,0-1.251-0.14-1.816-0.37c-0.791-0.324-1.476-0.855-2.017-1.526c-0.466-0.577-0.813-1.252-1.013-2
		c-0.123-0.46-0.21-0.936-0.21-1.437v-6.16h-0.632h-1.896h-0.632v6.16c0,0.501-0.087,0.977-0.21,1.437
		c-0.2,0.748-0.547,1.424-1.013,2c-0.928,1.15-2.293,1.896-3.834,1.896c-1.54,0-2.905-0.746-3.833-1.896
		c-0.466-0.576-0.813-1.252-1.013-2c-0.123-0.46-0.21-0.936-0.21-1.437v-6.16h-0.632h-1.896h-0.632v6.16
		c0,0.5-0.087,0.977-0.21,1.437c-0.2,0.748-0.547,1.424-1.013,2c-0.928,1.15-2.293,1.897-3.833,1.897
		c-1.541,0-2.905-0.747-3.834-1.897c-0.465-0.576-0.812-1.252-1.012-2c-0.123-0.46-0.21-0.937-0.21-1.437v-6.16h-0.633h-1.896
		h-0.633v6.16c0,0.5-0.087,0.977-0.21,1.437c-0.2,0.748-0.548,1.424-1.013,2c-0.928,1.149-2.293,1.896-3.833,1.896
		s-2.905-0.746-3.834-1.896c-0.465-0.576-0.813-1.252-1.013-2c-0.123-0.46-0.21-0.937-0.21-1.437v-6.16h-0.632h-1.896h-0.631v6.16
		c0,0.5-0.088,0.977-0.211,1.437c-0.199,0.748-0.547,1.424-1.012,2c-0.928,1.15-2.293,1.897-3.834,1.897
		c-1.54,0-2.905-0.747-3.834-1.897c-0.465-0.576-0.812-1.252-1.012-2c-0.123-0.46-0.21-0.937-0.21-1.437v-6.16h-0.632h-1.896h-0.632
		v6.16c0,0.501-0.087,0.977-0.21,1.437c-0.2,0.747-0.547,1.423-1.012,2c-0.928,1.15-2.293,1.897-3.834,1.897
		s-2.906-0.747-3.834-1.897c-0.465-0.577-0.813-1.253-1.013-2c-0.123-0.46-0.21-0.936-0.21-1.437v-6.16h-0.632h-1.896h-0.633v6.16
		c0,0.501-0.086,0.977-0.209,1.437c-0.201,0.748-0.548,1.423-1.013,2c-0.322,0.399-0.688,0.755-1.106,1.04
		c-0.594,0.404-1.272,0.667-2,0.779c-0.24,0.037-0.479,0.077-0.727,0.077c-2.789,0-5.058-2.393-5.058-5.333v-6.16h-2.528v6.16
		c0,4.418,3.396,8,7.586,8c0.246,0,0.485-0.029,0.727-0.053c0.699-0.071,1.369-0.24,2-0.498c1.665-0.68,3.052-1.949,3.908-3.58
		c1.293,2.462,3.779,4.131,6.637,4.131s5.343-1.668,6.636-4.131c1.294,2.462,3.778,4.131,6.636,4.131s5.344-1.668,6.637-4.131
		c1.293,2.463,3.779,4.131,6.636,4.131c2.857,0,5.343-1.669,6.636-4.131c1.294,2.462,3.779,4.131,6.637,4.131
		c2.856,0,5.343-1.669,6.636-4.131c1.293,2.462,3.779,4.131,6.636,4.131c2.857,0,5.343-1.669,6.637-4.131
		c1.009,1.921,2.749,3.346,4.819,3.885c0.583,0.152,1.188,0.246,1.816,0.246c0.063,0,0.122-0.009,0.184-0.01
		c4.103-0.104,7.4-3.639,7.4-7.99v-6.16H265.051z"/>
	<path fill="#00381E" d="M216.155,139.564v-3.246h-0.985h-0.332v3.246c0,0.191-0.029,0.373-0.066,0.551
		c0,0.002-0.002,0.006-0.002,0.008c-0.014,0.066-0.025,0.135-0.043,0.199c-0.016,0.057-0.043,0.105-0.061,0.16
		c-0.031,0.092-0.064,0.182-0.104,0.27c-0.037,0.084-0.078,0.166-0.123,0.244c-0.047,0.084-0.1,0.162-0.154,0.238
		c-0.033,0.047-0.057,0.1-0.092,0.143c-0.036,0.045-0.075,0.084-0.113,0.127c-0.005,0.004-0.01,0.01-0.015,0.016
		c-0.483,0.523-1.147,0.857-1.894,0.857c-0.003,0-0.006,0-0.01,0c-0.002,0-0.003,0-0.006,0c-0.006,0-0.012-0.002-0.02-0.002
		c-0.145-0.002-0.285-0.02-0.422-0.045c-0.027-0.006-0.055-0.008-0.082-0.016c-0.131-0.027-0.257-0.068-0.379-0.117
		c-0.018-0.006-0.037-0.008-0.055-0.016c-0.047-0.02-0.09-0.045-0.137-0.066c-0.012-0.006-0.023-0.012-0.035-0.018
		c-0.344-0.174-0.646-0.418-0.891-0.721c-0.246-0.305-0.428-0.66-0.535-1.055c-0.064-0.242-0.109-0.492-0.109-0.758v-3.246h-0.319
		h-0.015h-0.985h-0.015h-0.318v3.246c0,0.266-0.046,0.516-0.111,0.758c-0.104,0.395-0.287,0.75-0.533,1.055
		c-0.488,0.607-1.209,1-2.021,1c-0.003,0-0.005,0-0.007,0c-0.003,0-0.006,0-0.008,0c-0.813,0-1.532-0.393-2.021-1
		c-0.245-0.303-0.428-0.66-0.533-1.055c-0.064-0.242-0.111-0.492-0.111-0.758v-3.246h-0.318h-0.014h-0.986h-0.014h-0.319v3.246
		c0,0.266-0.046,0.516-0.11,0.758c-0.105,0.395-0.289,0.75-0.533,1.055c-0.17,0.211-0.363,0.398-0.584,0.549
		c-0.169,0.115-0.353,0.207-0.545,0.277c-0.246,0.098-0.512,0.154-0.787,0.166c-0.035,0.004-0.07,0.008-0.105,0.008
		c-0.002,0-0.004,0-0.006,0s-0.006,0-0.009,0c-0.173,0-0.341-0.021-0.504-0.055c-0.009-0.002-0.019-0.004-0.027-0.006
		c-0.161-0.035-0.315-0.088-0.464-0.152c-0.017-0.006-0.033-0.014-0.049-0.021c-0.141-0.064-0.273-0.141-0.398-0.229
		c-0.024-0.016-0.047-0.033-0.07-0.051c-0.118-0.088-0.23-0.184-0.334-0.291c-0.021-0.021-0.039-0.043-0.059-0.064
		c-0.039-0.043-0.08-0.086-0.115-0.131c-0.027-0.033-0.045-0.072-0.07-0.105c-0.063-0.088-0.122-0.178-0.176-0.273
		c-0.042-0.074-0.081-0.148-0.117-0.227c-0.041-0.094-0.076-0.189-0.109-0.287c-0.018-0.055-0.047-0.105-0.062-0.162
		c-0.016-0.057-0.025-0.117-0.038-0.176c-0.002-0.01-0.004-0.018-0.005-0.025c-0.039-0.18-0.068-0.363-0.068-0.557v-3.246h-0.333
		h-0.985v3.246c0,1.447,0.69,2.723,1.743,3.482c0.011,0.008,0.021,0.016,0.031,0.023c0.096,0.066,0.195,0.131,0.297,0.189
		c0.026,0.016,0.053,0.029,0.079,0.043c0.171,0.094,0.349,0.174,0.532,0.24c0.047,0.018,0.092,0.039,0.139,0.053
		c0.077,0.025,0.156,0.043,0.234,0.064c0.084,0.021,0.168,0.041,0.252,0.055c0.068,0.014,0.136,0.025,0.204,0.033
		c0.143,0.018,0.286,0.029,0.433,0.031c0.016,0,0.031,0.004,0.047,0.004c0.136,0,0.269-0.016,0.401-0.031
		c0.157-0.016,0.31-0.045,0.46-0.078c0.033-0.008,0.068-0.014,0.102-0.023c0.126-0.033,0.248-0.076,0.37-0.121
		c0.05-0.018,0.101-0.035,0.151-0.057c0.198-0.084,0.391-0.182,0.572-0.295c0.047-0.031,0.09-0.068,0.137-0.102
		c0.116-0.08,0.229-0.166,0.338-0.258c0.09-0.08,0.177-0.164,0.261-0.252c0.048-0.049,0.095-0.102,0.141-0.152
		c0.214-0.246,0.404-0.516,0.559-0.809c0.002,0.004,0.005,0.008,0.007,0.012c0.002-0.006,0.006-0.008,0.008-0.012
		c0.681,1.295,1.988,2.174,3.492,2.178c1.502-0.004,2.81-0.883,3.491-2.178c0.002,0.004,0.005,0.008,0.007,0.012
		c0.002-0.004,0.006-0.008,0.008-0.012c0.34,0.648,0.838,1.191,1.438,1.574c0.004,0.002,0.007,0.004,0.01,0.006
		c0.127,0.08,0.261,0.15,0.396,0.215c0.053,0.025,0.107,0.049,0.162,0.072c0.086,0.037,0.175,0.068,0.264,0.1
		c0.074,0.023,0.146,0.051,0.223,0.07c0.066,0.018,0.134,0.029,0.201,0.045c0.096,0.021,0.19,0.043,0.288,0.059
		c0.167,0.021,0.337,0.037,0.511,0.037c0.016-0.002,0.031-0.002,0.047-0.004c0.068,0,0.135-0.01,0.203-0.014
		c0.19-0.014,0.379-0.039,0.562-0.078c0.033-0.008,0.065-0.014,0.098-0.021C214.841,143.229,216.155,141.561,216.155,139.564z"/>
	<g>
		
			<line fill="none" stroke="#00381E" stroke-width="2" stroke-linecap="round" stroke-miterlimit="10" x1="191.429" y1="130.818" x2="218.846" y2="130.818"/>
	</g>
	<g>
		
			<rect x="194.179" y="136.318" fill="none" stroke="#00381E" stroke-width="2" stroke-linecap="round" stroke-miterlimit="10" width="22.167" height="22.166"/>
	</g>
	<g>
		<path fill="#00381E" d="M253.179,138.318v39.666h-23v-39.666H253.179 M255.179,136.318h-27v43.666h27V136.318L255.179,136.318z"/>
	</g>
	<g>
		<path fill="#00381E" d="M253.179,155.652v4h-23v-4H253.179 M255.179,153.652h-27v8h27V153.652L255.179,153.652z"/>
	</g>
	<g>
		<circle fill="#00381E" cx="233.179" cy="157.652" r="2"/>
	</g>
	<path fill="#00381E" d="M183.09,118.594c-0.631,0.258-1.301,0.427-2,0.498v31.086h2V118.594z"/>
	<path fill="#00381E" d="M259.999,119.145c-0.616,0-1.21-0.094-1.782-0.246v59.086h-67.819l0,0c0,0-0.438,0-0.438,0.969
		c0,1.094,0.276,1.031,0.276,1.031h69.942v-60.85C260.118,119.136,260.06,119.145,259.999,119.145z"/>
	<path fill="#00381E" d="M184.18,153.93h-1.09h-2h-5.744c-0.553,0-1,0.447-1,1s0.447,1,1,1h5.744h2h1.09c0.552,0,1-0.447,1-1
		S184.731,153.93,184.18,153.93z"/>
	<path fill="#00381E" d="M184.18,159.971h-1.09h-2h-5.744c-0.553,0-1,0.447-1,1s0.447,1,1,1h5.744h2h1.09c0.552,0,1-0.447,1-1
		S184.731,159.971,184.18,159.971z"/>
	<path fill="#00381E" d="M184.18,165.43h-1.09h-2h-5.744c-0.553,0-1,0.447-1,1s0.447,1,1,1h5.744h2h1.09c0.552,0,1-0.447,1-1
		S184.731,165.43,184.18,165.43z"/>
	<path fill="#00381E" d="M189.429,150.178h-6.339h-2h-10.078v21.584h2.691l-1.842,6.967c-0.141,0.535,0.178,1.082,0.711,1.223
		c0.086,0.023,0.172,0.033,0.256,0.033c0.443,0,0.848-0.295,0.967-0.744l1.867-7.063c0.037-0.141,0.039-0.281,0.018-0.416h5.41h2
		h1.921c-0.022,0.135-0.021,0.275,0.017,0.416l1.536,5.807l0.332,1.256c0.118,0.449,0.523,0.744,0.966,0.744
		c0.085,0,0.171-0.01,0.257-0.033c0.534-0.141,0.853-0.688,0.711-1.223l-0.196-0.744l-1.646-6.223h2.442V150.178z M187.429,169.762
		h-4.339h-2h-8.078v-17.584h8.078h2h4.339V169.762z"/>
</g>
<g>
	<g>
		
			<line fill="none" stroke="#00381E" stroke-width="2.2592" stroke-miterlimit="10" x1="200.779" y1="-160.859" x2="277.779" y2="-160.859"/>
	</g>
	<g>
		<circle fill="#00381E" cx="206.564" cy="-165.856" r="1.111"/>
	</g>
	<g>
		<circle fill="#00381E" cx="209.876" cy="-165.856" r="1.11"/>
	</g>
	<g>
		<circle fill="#00381E" cx="213.188" cy="-165.856" r="1.11"/>
	</g>
	<path fill="none" d="M222.618-114.029h52.94v-55.159H203v41.357c1.454-0.469,3-0.729,4.607-0.729
		C215.728-128.56,222.348-122.085,222.618-114.029z"/>
	<g>
		<path fill="#00381E" d="M222.618-114.029c-0.271-8.056-6.891-14.53-15.011-14.53c-1.607,0-3.153,0.26-4.607,0.729
			c-0.77,0.249-1.51,0.564-2.221,0.928c-4.863,2.493-8.207,7.548-8.207,13.379c0,8.29,6.745,15.034,15.035,15.034
			c7.711,0,14.076-5.835,14.931-13.319c0.064-0.563,0.105-1.134,0.105-1.715C222.644-113.694,222.623-113.86,222.618-114.029z
			 M207.607-100.222c-7.334,0-13.302-5.968-13.302-13.302c0-4.837,2.603-9.066,6.474-11.395c0.701-0.422,1.443-0.78,2.221-1.068
			c1.438-0.534,2.986-0.84,4.607-0.84c7.164,0,13.008,5.697,13.277,12.797c0.006,0.169,0.025,0.335,0.025,0.506
			c0,0.582-0.051,1.152-0.123,1.715C219.941-105.283,214.36-100.222,207.607-100.222z"/>
		<path fill="none" stroke="#00381E" stroke-width="1.7331" stroke-miterlimit="10" d="M236.623-73.317
			c-0.304-14.427-13.174-26.038-29.016-26.038s-28.711,11.611-29.016,26.038c-0.003,0.174-0.014,0.346-0.014,0.521
			c0,0.174,0.011,0.346,0.014,0.521h58.031c0.005-0.175,0.015-0.347,0.015-0.521C236.638-72.972,236.628-73.144,236.623-73.317z"/>
		<g>
			<path fill="#00381E" d="M187.568-71.409c-0.479,0-0.866-0.388-0.866-0.866v-9.532c0-0.479,0.388-0.867,0.866-0.867
				s0.867,0.388,0.867,0.867v9.532C188.436-71.797,188.047-71.409,187.568-71.409z"/>
		</g>
		<g>
			<path fill="#00381E" d="M226.781-71.409c-0.479,0-0.867-0.388-0.867-0.866v-9.532c0-0.479,0.388-0.867,0.867-0.867
				c0.479,0,0.865,0.388,0.865,0.867v9.532C227.646-71.797,227.26-71.409,226.781-71.409z"/>
		</g>
		
			<line fill="none" stroke="#00381E" stroke-width="1.7331" stroke-miterlimit="10" x1="207.607" y1="-72.275" x2="218.623" y2="-97.015"/>
		
			<line fill="none" stroke="#00381E" stroke-width="1.7331" stroke-miterlimit="10" x1="207.607" y1="-72.275" x2="196.594" y2="-97.015"/>
		
			<line fill="none" stroke="#00381E" stroke-width="1.7331" stroke-miterlimit="10" x1="199.424" y1="-98.282" x2="213.283" y2="-84.422"/>
		
			<line fill="none" stroke="#00381E" stroke-width="1.7331" stroke-miterlimit="10" x1="215.961" y1="-98.282" x2="202.101" y2="-84.422"/>
	</g>
	<g>
		<path fill="#00381E" d="M259.355-142.83c-0.188-5.613-4.802-10.125-10.459-10.125c-1.12,0-2.198,0.181-3.21,0.508
			c-0.537,0.173-1.053,0.393-1.548,0.647c-3.39,1.737-5.719,5.259-5.719,9.322c0,5.776,4.699,10.476,10.477,10.476
			c5.372,0,9.809-4.066,10.403-9.281c0.045-0.393,0.073-0.79,0.073-1.195C259.373-142.596,259.359-142.712,259.355-142.83z
			 M248.896-133.208c-5.111,0-9.27-4.158-9.27-9.269c0-3.37,1.814-6.317,4.512-7.94c0.488-0.294,1.006-0.543,1.548-0.744
			c1.001-0.372,2.08-0.585,3.21-0.585c4.992,0,9.063,3.97,9.252,8.917c0.004,0.118,0.018,0.233,0.018,0.353
			c0,0.406-0.035,0.803-0.087,1.195C257.49-136.735,253.602-133.208,248.896-133.208z"/>
		<path fill="none" stroke="#00381E" stroke-width="1.2076" stroke-miterlimit="10" d="M269.114-114.462
			c-0.212-10.052-9.18-18.143-20.218-18.143s-20.006,8.091-20.219,18.143c-0.002,0.121-0.01,0.241-0.01,0.363
			c0,0.121,0.008,0.241,0.01,0.363h40.437c0.003-0.122,0.01-0.242,0.01-0.363C269.124-114.221,269.117-114.341,269.114-114.462z"/>
		<g>
			<path fill="#00381E" d="M234.934-113.132c-0.334,0-0.604-0.27-0.604-0.604v-6.643c0-0.334,0.271-0.604,0.604-0.604
				c0.333,0,0.604,0.27,0.604,0.604v6.643C235.537-113.401,235.267-113.132,234.934-113.132z"/>
		</g>
		<g>
			<path fill="#00381E" d="M262.256-113.132c-0.334,0-0.604-0.27-0.604-0.604v-6.643c0-0.334,0.27-0.604,0.604-0.604
				s0.604,0.27,0.604,0.604v6.643C262.859-113.401,262.59-113.132,262.256-113.132z"/>
		</g>
		
			<line fill="none" stroke="#00381E" stroke-linecap="round" stroke-miterlimit="10" x1="252.852" y1="-122.199" x2="256.571" y2="-130.974"/>
		
			<line fill="none" stroke="#00381E" stroke-linecap="round" stroke-miterlimit="10" x1="245.059" y1="-122.199" x2="241.222" y2="-130.974"/>
		
			<line fill="none" stroke="#00381E" stroke-linecap="round" stroke-miterlimit="10" x1="243.194" y1="-131.857" x2="252.852" y2="-122.199"/>
		
			<line fill="none" stroke="#00381E" stroke-linecap="round" stroke-miterlimit="10" x1="254.717" y1="-131.857" x2="245.059" y2="-122.199"/>
	</g>
	<path fill="#00381E" d="M200.779-171.409v17.46H203v-15.239h72.559v55.159h-52.94c0.005,0.169,0.025,0.335,0.025,0.506
		c0,0.581-0.041,1.151-0.105,1.715h55.241v-59.601H200.779z"/>
	<path fill="#00381E" d="M200.779-126.902c0.711-0.364,1.451-0.68,2.221-0.928v-6.303l-2.221-0.002V-126.902z"/>
	<path fill="#00381E" d="M211.77-153.949H203h-2.221h-16.152c-2.488,0-4.512,2.023-4.512,4.511v10.774
		c0,2.488,2.023,4.511,4.51,4.511l16.154,0.018l2.221,0.002l3.064,0.003l6.469,4.716c0.134,0.098,0.291,0.146,0.449,0.146
		c0.004,0,0.01,0,0.015,0c0.421,0,0.761-0.341,0.761-0.761c0-0.116-0.025-0.227-0.072-0.325l-0.994-4.009
		c2.205-0.689,3.59-2.316,3.59-4.301v-10.774C216.281-151.926,214.258-153.949,211.77-153.949z M214.758-138.665
		c0,1.757-1.619,2.703-3.135,3.003c-0.205,0.041-0.384,0.163-0.495,0.338c-0.112,0.176-0.147,0.39-0.097,0.592l0.707,2.854
		l-4.978-3.629c-0.13-0.095-0.286-0.146-0.447-0.146L203-135.656l-2.221-0.002l-16.152-0.018c-1.648,0-2.988-1.34-2.988-2.988
		v-10.774c0-1.647,1.34-2.988,2.988-2.988h16.152H203h8.77c1.648,0,2.988,1.341,2.988,2.988V-138.665z"/>
	<path fill="#00381E" d="M209.111-149.381H203h-2.221h-14.572c-0.422,0-0.762,0.341-0.762,0.762s0.34,0.761,0.762,0.761h14.572H203
		h6.111c0.421,0,0.762-0.341,0.762-0.761S209.532-149.381,209.111-149.381z"/>
	<path fill="#00381E" d="M203.137-141.26c0-0.153-0.057-0.288-0.137-0.407v0.814C203.08-140.972,203.137-141.106,203.137-141.26z"/>
	<path fill="#00381E" d="M202.386-142.011h-1.606h-14.572c-0.416,0-0.752,0.336-0.752,0.751s0.336,0.751,0.752,0.751h14.572h1.606
		c0.262,0,0.48-0.142,0.614-0.344v-0.814C202.866-141.869,202.647-142.011,202.386-142.011z"/>
	<path fill="#00381E" d="M208.794-142.021h-4.188c-0.421,0-0.761,0.341-0.761,0.761s0.34,0.761,0.761,0.761h4.188
		c0.421,0,0.762-0.341,0.762-0.761S209.215-142.021,208.794-142.021z"/>
	<g>
		<g>
			<path fill="#00381E" d="M242.053-107.356c0.006,0,0.01,0,0.016,0c0.157,0,0.314,0.049,0.448,0.146l6.47,4.715l21.438,0.023
				c2.487,0,4.511,2.023,4.511,4.512v10.773c0,2.488-2.023,4.512-4.511,4.512h-27.145c-2.487,0-4.511-2.023-4.511-4.512V-97.96
				c0-1.984,1.384-3.611,3.59-4.301l-0.994-4.01c-0.047-0.098-0.073-0.209-0.073-0.324
				C241.291-107.016,241.633-107.356,242.053-107.356z M270.424-84.198c1.647,0,2.988-1.34,2.988-2.988V-97.96
				c0-1.648-1.341-2.988-2.988-2.988l-21.688-0.023c-0.16,0-0.318-0.052-0.447-0.146l-4.979-3.629l0.708,2.854
				c0.05,0.203,0.016,0.416-0.097,0.592c-0.111,0.176-0.29,0.299-0.494,0.339c-1.516,0.3-3.137,1.246-3.137,3.003v10.773
				c0,1.648,1.341,2.988,2.988,2.988H270.424z"/>
		</g>
		<g>
			<path fill="#00381E" d="M245.938-88.767h22.906c0.42,0,0.762,0.342,0.762,0.762s-0.342,0.762-0.762,0.762h-22.906
				c-0.42,0-0.761-0.342-0.761-0.762S245.518-88.767,245.938-88.767z"/>
		</g>
		<g>
			<path fill="#00381E" d="M254.132-96.116h14.777c0.378,0,0.685,0.336,0.685,0.752c0,0.414-0.307,0.75-0.685,0.75h-14.777
				c-0.379,0-0.686-0.336-0.686-0.75C253.446-95.78,253.753-96.116,254.132-96.116z"/>
		</g>
		<g>
			<path fill="#00381E" d="M246.256-96.126h4.188c0.42,0,0.762,0.341,0.762,0.762c0,0.42-0.342,0.761-0.762,0.761h-4.188
				c-0.421,0-0.762-0.341-0.762-0.761C245.494-95.785,245.835-96.126,246.256-96.126z"/>
		</g>
	</g>
</g>
<circle fill="#00381E" cx="-179.334" cy="-83.917" r="1.667"/>
<circle fill="#00381E" cx="-174.612" cy="-83.917" r="1.667"/>
<circle fill="#00381E" cx="-169.89" cy="-83.917" r="1.667"/>
<line fill="none" stroke="#00381E" stroke-width="2" stroke-linecap="round" stroke-miterlimit="10" x1="-133" y1="-54.029" x2="-96.833" y2="-54.029"/>
<line fill="none" stroke="#00381E" stroke-width="2" stroke-linecap="round" stroke-miterlimit="10" x1="-133" y1="-48.029" x2="-96.833" y2="-48.029"/>
<line fill="none" stroke="#00381E" stroke-width="2" stroke-linecap="round" stroke-miterlimit="10" x1="-133" y1="-41.362" x2="-96.833" y2="-41.362"/>
<line fill="none" stroke="#00381E" stroke-width="2" stroke-linecap="round" stroke-miterlimit="10" x1="-133" y1="-34.862" x2="-96.833" y2="-34.862"/>
<path fill="#00381E" d="M-184.167-77.529h-1c-0.552,0-1-0.448-1-1v12.924l2,2.074V-77.529z"/>
<path fill="#00381E" d="M-91.833-77.529h-1v46.575c0,2.164-1.761,3.925-3.925,3.925h-52.224l1.928,2h50.296
	c3.267,0,5.925-2.658,5.925-5.925v-47.575C-90.833-77.977-91.28-77.529-91.833-77.529z"/>
<path fill="#00381E" d="M-185.167-77.529h1v-2h-1c-0.552,0-1,0.448-1,1S-185.719-77.529-185.167-77.529z"/>
<path fill="#00381E" d="M-91.833-79.529h-1v2h1c0.553,0,1-0.448,1-1S-91.28-79.529-91.833-79.529z"/>
<polygon fill="none" points="-139.5,-52.696 -139.5,-73.363 -178.334,-73.363 -178.334,-57.48 -173.723,-52.696 "/>
<polygon fill="#00381E" points="-137.5,-75.363 -180.334,-75.363 -180.334,-59.556 -178.334,-57.48 -178.334,-73.363 
	-139.5,-73.363 -139.5,-52.696 -173.723,-52.696 -171.795,-50.696 -137.5,-50.696 "/>
<path fill="#00381E" d="M-140.119-17.835l-6.935-7.194l-1.928-2l-22.813-23.667l-1.928-2l-4.611-4.784l-2-2.075l-3.833-3.976
	l-2-2.074l-0.114-0.118c-0.283-0.293-0.717-0.385-1.094-0.233c-0.378,0.153-0.626,0.52-0.626,0.928v48c0,0.553,0.448,1,1,1h46.269
	c0.007,0,0.013,0,0.02,0c0.552,0,1-0.447,1-1C-139.711-17.36-139.872-17.653-140.119-17.835z M-186-18.029v-11.555v-32.967
	l1.833,1.902l3.833,3.976l2,2.075l1.833,1.901l1.928,2l22.814,23.667l1.928,2l6.748,7H-186z"/>
<polygon fill="none" stroke="#00381E" stroke-width="2" stroke-linejoin="round" stroke-miterlimit="10" points="-178.18,-26.029 
	-178.18,-44.945 -159.53,-26.029 "/>
<g>
	
		<line fill="none" stroke="#00381E" stroke-width="2" stroke-linecap="round" stroke-linejoin="round" stroke-miterlimit="10" x1="-186.125" y1="-54.57" x2="-182.833" y2="-54.57"/>
	
		<line fill="none" stroke="#00381E" stroke-width="2" stroke-linecap="round" stroke-linejoin="round" stroke-miterlimit="10" x1="-186.063" y1="-47.987" x2="-182.771" y2="-47.987"/>
	
		<line fill="none" stroke="#00381E" stroke-width="2" stroke-linecap="round" stroke-linejoin="round" stroke-miterlimit="10" x1="-186" y1="-41.404" x2="-182.708" y2="-41.404"/>
	
		<line fill="none" stroke="#00381E" stroke-width="2" stroke-linecap="round" stroke-linejoin="round" stroke-miterlimit="10" x1="-185.938" y1="-34.82" x2="-182.646" y2="-34.82"/>
	
		<line fill="none" stroke="#00381E" stroke-width="2" stroke-linecap="round" stroke-linejoin="round" stroke-miterlimit="10" x1="-185.875" y1="-28.237" x2="-182.583" y2="-28.237"/>
	
		<line fill="none" stroke="#00381E" stroke-width="2" stroke-linecap="round" stroke-linejoin="round" stroke-miterlimit="10" x1="-185.813" y1="-21.654" x2="-182.521" y2="-21.654"/>
</g>
<path fill="#00381E" d="M-107.163-81.468c-0.018,0.009-0.033,0.017-0.06,0.029C-107.223-81.439-107.194-81.453-107.163-81.468z"/>
<path fill="#00381E" d="M-107.163-81.468C-107.021-81.538-107.096-81.5-107.163-81.468L-107.163-81.468z"/>
<path fill="#00381E" d="M-120.366-81.426v-0.013C-120.532-81.521-120.448-81.469-120.366-81.426z"/>
<path fill="#00381E" d="M-120.366-81.439c-0.018-0.009-0.026-0.013-0.041-0.02C-120.385-81.448-120.366-81.439-120.366-81.439z"/>
<path fill="#00381E" d="M-120.494-81.501C-120.515-81.512-120.511-81.51-120.494-81.501L-120.494-81.501z"/>
<path fill="#00381E" d="M-120.407-81.458c-0.029-0.015-0.065-0.032-0.087-0.043C-120.479-81.495-120.45-81.479-120.407-81.458z"/>
<circle fill="none" stroke="#00381E" stroke-width="2.2417" stroke-miterlimit="10" cx="-113.794" cy="-96.293" r="4.553"/>
<path fill="#00381E" d="M-96.758-90.362h-3.71c-0.213,0.689-0.466,1.357-0.755,2h4.465c2.164,0,3.925,1.761,3.925,3.925v4.908h1
	c0.553,0,1,0.448,1,1v-5.908C-90.833-87.705-93.491-90.362-96.758-90.362z"/>
<path fill="#00381E" d="M-180.242-90.362c-3.267,0-5.925,2.658-5.925,5.925v5.908c0-0.552,0.448-1,1-1h1v-4.908
	c0-2.164,1.761-3.925,3.925-3.925h53.875c-0.29-0.643-0.542-1.311-0.755-2H-180.242z"/>
<path fill="none" d="M-107.315-76.61c0.027,0.041,0.066,0.072,0.093,0.115c0.288,0.467,0.461,1.033,0.461,1.646
	c0,1.082-0.533,2.014-1.31,2.503c-0.126,0.08-0.257,0.147-0.394,0.201c-0.258,0.101-0.529,0.167-0.815,0.167h-9.029
	c-0.286,0-0.555-0.066-0.812-0.167c-0.139-0.054-0.269-0.121-0.396-0.2c-0.778-0.489-1.311-1.422-1.311-2.505
	c0-0.614,0.173-1.18,0.461-1.646c0.026-0.042,0.063-0.074,0.091-0.115c-0.188-0.273-0.333-0.583-0.43-0.919h-63.461v13.998
	l35.185,36.502h52.224c2.164,0,3.925-1.761,3.925-3.925v-46.575h-14.052C-106.98-77.194-107.127-76.883-107.315-76.61z"/>
<path fill="none" d="M-96.758-88.362h-4.465c-1.33,2.949-3.431,5.375-6,6.923c0.167-0.082,0.081-0.03,0,0.013v1.428
	c0.09,0.146,0.164,0.305,0.23,0.469h14.159v-4.908C-92.833-86.602-94.594-88.362-96.758-88.362z"/>
<path fill="none" d="M-120.366-79.998v-1.428c0.077,0.042,0.15,0.079,0-0.013c-2.57-1.548-4.671-3.974-6-6.923h-53.875
	c-2.164,0-3.925,1.761-3.925,3.925v4.908h63.57C-120.53-79.693-120.456-79.852-120.366-79.998z"/>
<path fill="#00381E" d="M-106.762-78.352c0,0.29-0.048,0.563-0.123,0.823h14.052v-2h-14.159
	C-106.848-79.169-106.762-78.773-106.762-78.352z"/>
<path fill="#00381E" d="M-120.827-78.352c0-0.421,0.086-0.817,0.23-1.177h-63.57v2h63.461
	C-120.779-77.789-120.827-78.062-120.827-78.352z"/>
<path fill="none" d="M-118.31-74.219h9.029c0.306,0,0.553-0.283,0.553-0.63c0-0.048-0.016-0.09-0.024-0.135
	c-0.049-0.256-0.23-0.447-0.462-0.481c-0.022-0.003-0.043-0.015-0.066-0.015h-9.029c-0.024,0-0.043,0.012-0.066,0.015
	c-0.233,0.034-0.416,0.23-0.464,0.49c-0.008,0.042-0.021,0.082-0.021,0.126C-118.861-74.501-118.614-74.219-118.31-74.219z"/>
<path fill="#00381E" d="M-113.795-111.802c-7.79,0-14.126,7.228-14.126,16.112c0,1.867,0.284,3.659,0.8,5.327
	c0.213,0.689,0.465,1.357,0.755,2c1.329,2.949,3.43,5.375,6,6.923c0.15,0.091,0.077,0.055,0,0.013v1.428
	c-0.09,0.146-0.164,0.305-0.23,0.469c-0.145,0.36-0.23,0.756-0.23,1.177c0,0.29,0.048,0.563,0.122,0.823
	c0.097,0.335,0.241,0.646,0.43,0.919c-0.027,0.041-0.064,0.072-0.091,0.115c-0.288,0.467-0.461,1.033-0.461,1.646
	c0,1.083,0.532,2.016,1.311,2.505c0.127,0.079,0.257,0.146,0.396,0.2c0.257,0.101,0.525,0.167,0.812,0.167h9.029
	c0.286,0,0.558-0.066,0.815-0.167c0.137-0.054,0.268-0.122,0.394-0.201c0.776-0.489,1.31-1.422,1.31-2.503
	c0-0.614-0.173-1.18-0.461-1.646c-0.026-0.042-0.065-0.074-0.093-0.115c0.188-0.273,0.335-0.583,0.431-0.919
	c0.075-0.26,0.123-0.533,0.123-0.823c0-0.421-0.086-0.817-0.23-1.177c-0.066-0.164-0.141-0.323-0.23-0.469v-1.428
	c0.081-0.043,0.167-0.094,0-0.013c2.569-1.548,4.67-3.974,6-6.923c0.289-0.643,0.542-1.311,0.755-2c0.516-1.668,0.8-3.46,0.8-5.327
	C-99.668-104.574-106.005-111.802-113.795-111.802z M-109.28-74.219h-9.029c-0.305,0-0.552-0.283-0.552-0.63
	c0-0.044,0.014-0.084,0.021-0.126c0.048-0.26,0.23-0.456,0.464-0.49c0.023-0.003,0.042-0.015,0.066-0.015h9.029
	c0.023,0,0.044,0.012,0.066,0.015c0.231,0.034,0.413,0.225,0.462,0.481c0.009,0.045,0.024,0.087,0.024,0.135
	C-108.728-74.501-108.975-74.219-109.28-74.219z M-109.28-77.722h-9.029c-0.305,0-0.552-0.282-0.552-0.63
	c0-0.044,0.014-0.083,0.021-0.125c0.048-0.26,0.23-0.456,0.464-0.49c0.023-0.003,0.042-0.015,0.066-0.015h9.029
	c0.023,0,0.044,0.012,0.066,0.015c0.231,0.034,0.413,0.225,0.462,0.481c0.009,0.045,0.024,0.087,0.024,0.134
	C-108.728-78.004-108.975-77.722-109.28-77.722z M-103.506-88.362c-0.953,1.729-2.213,3.218-3.717,4.325
	c-0.619,0.457-1.276,0.854-1.965,1.177v1.649c-0.032-0.001-0.062-0.013-0.093-0.013h-3.394v-7.138v-2v-1.378h-2.242v1.378v2v7.138
	h-3.394c-0.031,0-0.06,0.012-0.091,0.013v-1.649c-0.691-0.323-1.347-0.721-1.966-1.177c-1.505-1.107-2.765-2.596-3.719-4.325
	c-0.351-0.637-0.669-1.299-0.927-2c-0.604-1.642-0.945-3.438-0.945-5.327c0-7.648,5.457-13.871,12.162-13.871
	s12.161,6.222,12.161,13.871c0,1.889-0.341,3.686-0.944,5.327C-102.836-89.661-103.154-89-103.506-88.362z"/>
<line fill="none" stroke="#00381E" stroke-width="2.5587" stroke-miterlimit="10" x1="-129.277" y1="-111.802" x2="-98.312" y2="-111.802"/>
<rect x="-133.023" y="-114.029" fill="none" stroke="#00381E" stroke-width="2.5587" stroke-miterlimit="10" width="4.828" height="4.455"/>
<rect x="-99.395" y="-114.029" fill="none" stroke="#00381E" stroke-width="2.5587" stroke-miterlimit="10" width="4.828" height="4.455"/>
<g>
	<g>
		<path fill="#00381E" d="M435.189,2.922c5.212,0,8.845,5.65,8.845,10.721c0,10.539-14.37,20.849-19.962,21.144
			c-0.034,0.001-0.068,0.004-0.104,0.008c-0.03,0.003-0.062,0.005-0.094,0.005c-2.206,0-7.182-2.459-12.058-7.017
			c-5.148-4.813-8.102-9.967-8.102-14.14c0-5.071,3.633-10.721,8.845-10.721c4.155,0,8.324,5.657,9.579,7.834
			c0.356,0.622,1.018,1.004,1.733,1.005c0.001,0,0.002,0,0.003,0c0.715,0,1.376-0.383,1.733-1.002
			C426.865,8.579,431.034,2.922,435.189,2.922 M435.189,0.922c-6.249,0-11.314,8.84-11.314,8.84s-5.065-8.84-11.314-8.84
			s-10.845,6.473-10.845,12.721c0,10.728,15.91,23.157,22.159,23.157c0.104,0,0.205-0.006,0.303-0.016
			c6.44-0.339,21.856-11.423,21.856-23.141C446.034,7.395,441.438,0.922,435.189,0.922L435.189,0.922z"/>
	</g>
	<polygon fill="none" points="396,97.078 414,97.078 414,48.873 414,46.672 414,41.078 401.282,41.078 396,51.555 	"/>
	<polygon fill="none" points="416,46.672 416,48.873 416,97.078 432,97.078 432,48.873 432,46.672 432,41.078 416,41.078 	"/>
	<polygon fill="none" points="434,46.672 434,48.873 434,97.078 452,97.078 452,48.873 452,46.672 452,41.078 434,41.078 	"/>
	<path fill="#00381E" d="M434,39.078h-2h-16h-2h-11.709l-1.009,2H414v5.594v2.201v48.205h-18V51.555l-2,3.966v43.558h20h20h20
		V48.873v-2.201v-7.594H434z M432,46.672v2.201v48.205h-16V48.873v-2.201v-5.594h16V46.672z M452,46.672v2.201v48.205h-18V48.873
		v-2.201v-5.594h18V46.672z"/>
	<path fill="#00381E" d="M388.842,23.688c-1.006-0.503-2.274-0.002-2.836,1.121l-10.753,21.513l-1.2,2.402l-1.007-3.024
		c-0.954-2.872-4.056-4.425-6.927-3.47c-1.436,0.478-2.543,1.493-3.17,2.746c-0.628,1.254-0.777,2.747-0.301,4.182l1.353,4.066
		l-4.069,1.353c-1.435,0.479-2.541,1.493-3.168,2.746c-0.628,1.253-0.778,2.746-0.301,4.182c0.955,2.873,4.056,4.426,6.926,3.47
		l3.046-1.012l-1.416,2.832l-10.753,21.513c-0.563,1.124-0.203,2.438,0.804,2.942l15.267,7.632c1.004,0.503,2.274,0.001,2.835-1.123
		l0.521-1.039l1.023-2.047l9.211-18.427l1.022-2.048l8.187-16.377l1.024-2.049l0.709-1.42l2.035-4.071l5.376-10.755l1.025-2.053
		l0.064-0.127l1.022-2.048l0.521-1.039c0.562-1.124,0.2-2.44-0.803-2.941L388.842,23.688z M372.697,93.665l-1.023,2.048
		l-0.408,0.819l-14.873-7.436l10.643-21.292l2.266,1.134l5.645,2.821l0.318,0.159l1.516,0.756l5.13,2.564L372.697,93.665z
		 M364.594,48.513c-0.289-0.869-0.223-1.798,0.188-2.617c0.41-0.82,1.114-1.431,1.983-1.72s1.799-0.223,2.618,0.188
		c0.819,0.411,1.429,1.115,1.718,1.985l1.352,4.066l-6.508,2.164L364.594,48.513z M372.063,52.704l-3.648,7.297l-1.822-5.478
		L372.063,52.704z M362.743,63.031c-0.87,0.29-1.799,0.224-2.618-0.187s-1.43-1.115-1.718-1.985
		c-0.289-0.868-0.222-1.797,0.188-2.618c0.41-0.818,1.115-1.43,1.982-1.719l4.07-1.353l2.164,6.509L362.743,63.031z M382.932,73.192
		l-5.076-2.537l-0.053-0.027l-1.833-0.918l-0.2-0.1l-4.988-2.493l-2.59-1.294l-0.131-0.066l-0.006-0.002l0.068-0.138l1.297-2.595
		l0.031-0.063l1.295-2.59l3.014-6.028l1.297-2.594l0.021-0.046l1.163-2.324l0.005,0.002l2.325,1.161l5.586,2.792l0.056,0.027
		l1.776,0.889l0.185,0.093l4.945,2.473L382.932,73.192z M402.377,34.292l-1.023,2.047l-0.571,1.144l-1.026,2.053l-2.869,5.742
		l-2.035,4.071l-2.709,5.417l-5.128-2.563L386,51.694l-0.82-0.411l-6.13-3.063l-1.78-0.889l10.645-21.292l14.871,7.434
		L402.377,34.292z"/>
</g>
</svg>
